<svg
  width="422"
  height="432"
  viewBox="0 0 422 432"
  fill="none"
  xmlns="http://www.w3.org/2000/svg"
>
  <style>
    circle,
    #text-sync,
    #text-school {
      fill: #000;
    }
    dots {
      stroke: #000;
    }
    @media (prefers-color-scheme: dark) {
      circle,
      #text-sync,
      #text-school {
        fill: #fff;
      }
      dots {
        stroke: #fff;
      }
    }
  </style>
  <path
    id="text-sync"
    d="M104.128 268.768C104.469 267.061 104.64 265.312 104.64 263.52C104.64 255.243 100.587 251.104 92.48 251.104C88.8107 251.104 85.696 251.872 83.136 253.408C80.7467 256.224 79.552 259.595 79.552 263.52C79.552 266.08 80.6613 268.299 82.88 270.176C85.0987 271.968 87.8293 273.376 91.072 274.4C94.4 275.424 97.984 276.704 101.824 278.24C105.664 279.776 109.205 281.44 112.448 283.232C115.776 284.939 118.549 287.541 120.768 291.04C122.987 294.453 124.096 298.507 124.096 303.2C124.096 312.16 120.64 319.456 113.728 325.088C106.901 330.72 98.6667 333.536 89.024 333.536C81.2587 333.536 74.6453 331.616 69.184 327.776C63.808 323.851 61.12 318.389 61.12 311.392C61.12 307.808 62.1867 304.821 64.32 302.432C66.5387 299.957 69.1413 298.72 72.128 298.72C75.2 298.72 77.4613 299.104 78.912 299.872C78.2293 302.432 77.888 304.736 77.888 306.784C77.888 311.392 79.168 315.061 81.728 317.792C84.3733 320.437 88 321.76 92.608 321.76C97.216 321.76 100.928 320.565 103.744 318.176C106.56 315.787 107.968 312.629 107.968 308.704C107.968 304.693 106.389 301.408 103.232 298.848C100.16 296.288 96.4053 294.24 91.968 292.704C87.5307 291.168 83.0933 289.547 78.656 287.84C74.2187 286.133 70.4213 283.616 67.264 280.288C64.192 276.875 62.656 272.608 62.656 267.488C62.656 259.467 66.112 252.811 73.024 247.52C80.0213 242.229 87.9147 239.584 96.704 239.584C103.189 239.584 108.779 240.907 113.472 243.552C118.251 246.112 120.64 250.037 120.64 255.328C120.64 259.168 119.403 262.453 116.928 265.184C114.453 267.829 111.339 269.152 107.584 269.152C106.56 269.152 105.408 269.024 104.128 268.768ZM128.515 247.776C130.563 243.339 134.318 241.12 139.779 241.12C149.934 241.12 159.534 255.712 168.579 284.896C173.87 276.96 178.392 268.896 182.147 260.704C185.987 252.427 187.907 245.643 187.907 240.352C196.952 240.352 201.475 242.741 201.475 247.52C201.475 250.848 199.427 255.797 195.331 262.368C191.235 268.939 186.798 275.723 182.019 282.72C177.326 289.632 174.552 294.709 173.699 297.952C173.443 301.28 173.315 305.376 173.315 310.24C173.315 315.104 173.912 321.845 175.107 330.464C172.376 331.488 169.475 332 166.403 332C163.331 332 160.643 331.019 158.339 329.056C156.12 327.093 155.011 324.619 155.011 321.632C155.011 318.56 155.523 310.795 156.547 298.336C149.976 272.736 140.632 255.883 128.515 247.776ZM262.922 242.4C265.653 241.035 268.511 240.352 271.498 240.352C274.57 240.352 277.045 241.291 278.922 243.168C280.885 245.045 281.866 247.307 281.866 249.952C281.866 252.597 281.482 258.443 280.714 267.488C279.946 276.448 279.562 283.573 279.562 288.864C279.562 305.845 280.33 319.968 281.866 331.232C279.135 332.256 276.063 332.768 272.65 332.768C269.322 332.768 266.719 332.213 264.842 331.104C259.381 327.947 246.623 307.979 226.57 271.2C226.229 274.528 226.058 282.336 226.058 294.624C226.058 306.827 226.997 318.773 228.874 330.464C226.229 331.488 223.37 332 220.298 332C217.226 332 214.709 331.019 212.746 329.056C210.869 327.093 209.93 324.747 209.93 322.016C209.93 319.285 210.314 313.568 211.082 304.864C211.935 296.16 212.362 289.589 212.362 285.152C212.362 268.171 211.551 254.091 209.93 242.912C212.319 241.717 215.818 241.12 220.426 241.12C225.034 241.12 228.277 242.955 230.154 246.624C242.783 272.309 254.858 294.069 266.378 311.904C266.122 295.52 265.994 286.859 265.994 285.92C265.994 269.963 264.97 255.456 262.922 242.4ZM334.092 239.584C341.516 239.584 348.001 241.76 353.548 246.112C359.095 250.464 361.868 256.096 361.868 263.008C361.868 266.677 360.844 269.707 358.796 272.096C356.748 274.485 354.231 275.68 351.244 275.68C348.257 275.68 345.868 275.296 344.076 274.528C344.332 273.163 344.46 271.712 344.46 270.176C344.375 264.8 343.052 260.448 340.492 257.12C337.932 253.707 334.177 252 329.228 252C324.364 252 319.841 253.579 315.66 256.736C313.185 260.32 311.265 265.013 309.9 270.816C308.535 276.619 307.852 282.336 307.852 287.968C307.852 297.355 309.644 305.248 313.228 311.648C316.897 317.963 322.572 321.12 330.252 321.12C337.335 321.12 342.113 318.432 344.588 313.056C346.892 308.363 348.044 302.133 348.044 294.368C352.396 294.368 356.023 295.179 358.924 296.8C361.825 298.336 363.276 300.896 363.276 304.48C363.276 312.843 359.607 319.797 352.268 325.344C344.929 330.805 336.652 333.536 327.436 333.536C315.404 333.536 306.273 329.568 300.044 321.632C293.815 313.611 290.7 302.773 290.7 289.12C290.7 275.467 294.583 263.819 302.348 254.176C310.199 244.448 320.78 239.584 334.092 239.584Z"
  />
  <path
    id="text-school"
    d="M90.08 135.48C90.2933 134.413 90.4 133.32 90.4 132.2C90.4 127.027 87.8667 124.44 82.8 124.44C80.5067 124.44 78.56 124.92 76.96 125.88C75.4667 127.64 74.72 129.747 74.72 132.2C74.72 133.8 75.4133 135.187 76.8 136.36C78.1867 137.48 79.8933 138.36 81.92 139C84 139.64 86.24 140.44 88.64 141.4C91.04 142.36 93.2533 143.4 95.28 144.52C97.36 145.587 99.0933 147.213 100.48 149.4C101.867 151.533 102.56 154.067 102.56 157C102.56 162.6 100.4 167.16 96.08 170.68C91.8133 174.2 86.6667 175.96 80.64 175.96C75.7867 175.96 71.6533 174.76 68.24 172.36C64.88 169.907 63.2 166.493 63.2 162.12C63.2 159.88 63.8667 158.013 65.2 156.52C66.5867 154.973 68.2133 154.2 70.08 154.2C72 154.2 73.4133 154.44 74.32 154.92C73.8933 156.52 73.68 157.96 73.68 159.24C73.68 162.12 74.48 164.413 76.08 166.12C77.7333 167.773 80 168.6 82.88 168.6C85.76 168.6 88.08 167.853 89.84 166.36C91.6 164.867 92.48 162.893 92.48 160.44C92.48 157.933 91.4933 155.88 89.52 154.28C87.6 152.68 85.2533 151.4 82.48 150.44C79.7067 149.48 76.9333 148.467 74.16 147.4C71.3867 146.333 69.0133 144.76 67.04 142.68C65.12 140.547 64.16 137.88 64.16 134.68C64.16 129.667 66.32 125.507 70.64 122.2C75.0133 118.893 79.9467 117.24 85.44 117.24C89.4933 117.24 92.9867 118.067 95.92 119.72C98.9067 121.32 100.4 123.773 100.4 127.08C100.4 129.48 99.6267 131.533 98.08 133.24C96.5333 134.893 94.5867 135.72 92.24 135.72C91.6 135.72 90.88 135.64 90.08 135.48ZM134.042 117.24C138.682 117.24 142.735 118.6 146.202 121.32C149.669 124.04 151.402 127.56 151.402 131.88C151.402 134.173 150.762 136.067 149.482 137.56C148.202 139.053 146.629 139.8 144.762 139.8C142.895 139.8 141.402 139.56 140.282 139.08C140.442 138.227 140.522 137.32 140.522 136.36C140.469 133 139.642 130.28 138.042 128.2C136.442 126.067 134.095 125 131.002 125C127.962 125 125.135 125.987 122.522 127.96C120.975 130.2 119.775 133.133 118.922 136.76C118.069 140.387 117.642 143.96 117.642 147.48C117.642 153.347 118.762 158.28 121.002 162.28C123.295 166.227 126.842 168.2 131.642 168.2C136.069 168.2 139.055 166.52 140.602 163.16C142.042 160.227 142.762 156.333 142.762 151.48C145.482 151.48 147.749 151.987 149.562 153C151.375 153.96 152.282 155.56 152.282 157.8C152.282 163.027 149.989 167.373 145.402 170.84C140.815 174.253 135.642 175.96 129.882 175.96C122.362 175.96 116.655 173.48 112.762 168.52C108.869 163.507 106.922 156.733 106.922 148.2C106.922 139.667 109.349 132.387 114.202 126.36C119.109 120.28 125.722 117.24 134.042 117.24ZM171.346 174.04C169.64 174.68 167.826 175 165.906 175C163.986 175 162.306 174.387 160.866 173.16C159.48 171.933 158.786 170.253 158.786 168.12C158.786 165.987 159.053 161.907 159.586 155.88C160.12 149.8 160.386 144.947 160.386 141.32C160.386 131.987 159.826 124.6 158.706 119.16C160.413 118.52 162.226 118.2 164.146 118.2C166.066 118.2 167.72 118.813 169.106 120.04C170.546 121.267 171.266 122.787 171.266 124.6C171.266 126.36 171.186 128.067 171.026 129.72C170.92 131.373 170.76 133.267 170.546 135.4C170.333 137.533 170.173 139.4 170.066 141C172.2 141.213 175.88 141.32 181.106 141.32C186.333 141.32 190.36 141.107 193.186 140.68C193.186 132.2 192.626 124.867 191.506 118.68C193.213 118.04 195.026 117.72 196.946 117.72C198.866 117.72 200.52 118.333 201.906 119.56C203.346 120.787 204.066 122.493 204.066 124.68C204.066 126.813 203.8 130.627 203.266 136.12C202.733 141.613 202.466 146.013 202.466 149.32C202.466 159.773 203.026 168.173 204.146 174.52C202.44 175.16 200.626 175.48 198.706 175.48C196.786 175.48 195.106 174.867 193.666 173.64C192.28 172.413 191.586 170.787 191.586 168.76C191.586 166.733 191.8 163.427 192.226 158.84C192.653 154.253 192.92 151.107 193.026 149.4C187.8 149.027 180.013 148.84 169.666 148.84V150.92C169.666 160.36 170.226 168.067 171.346 174.04ZM251.384 145.88C251.384 139.533 250.078 134.413 247.464 130.52C244.904 126.573 240.878 124.6 235.384 124.6C232.078 124.6 229.144 125.667 226.584 127.8C225.144 130.04 223.998 133.053 223.144 136.84C222.344 140.627 221.944 144.227 221.944 147.64C221.944 153.933 223.224 158.973 225.784 162.76C228.344 166.547 232.398 168.44 237.944 168.44C240.984 168.44 243.571 167.213 245.704 164.76C249.491 160.333 251.384 154.04 251.384 145.88ZM235.224 175.96C227.438 175.96 221.518 173.4 217.464 168.28C213.411 163.107 211.384 156.36 211.384 148.04C211.384 139.667 213.891 132.44 218.904 126.36C223.918 120.28 230.291 117.24 238.024 117.24C245.811 117.24 251.731 119.853 255.784 125.08C259.891 130.307 261.944 137.107 261.944 145.48C261.944 153.853 259.438 161.027 254.424 167C249.411 172.973 243.011 175.96 235.224 175.96ZM306.775 145.88C306.775 139.533 305.468 134.413 302.855 130.52C300.295 126.573 296.268 124.6 290.775 124.6C287.468 124.6 284.535 125.667 281.975 127.8C280.535 130.04 279.388 133.053 278.535 136.84C277.735 140.627 277.335 144.227 277.335 147.64C277.335 153.933 278.615 158.973 281.175 162.76C283.735 166.547 287.788 168.44 293.335 168.44C296.375 168.44 298.962 167.213 301.095 164.76C304.882 160.333 306.775 154.04 306.775 145.88ZM290.615 175.96C282.828 175.96 276.908 173.4 272.855 168.28C268.802 163.107 266.775 156.36 266.775 148.04C266.775 139.667 269.282 132.44 274.295 126.36C279.308 120.28 285.682 117.24 293.415 117.24C301.202 117.24 307.122 119.853 311.175 125.08C315.282 130.307 317.335 137.107 317.335 145.48C317.335 153.853 314.828 161.027 309.815 167C304.802 172.973 298.402 175.96 290.615 175.96ZM324.566 119.16C326.272 118.52 328.112 118.2 330.086 118.2C334.832 118.2 337.206 120.36 337.206 124.68C337.206 127.027 336.939 130.893 336.406 136.28C335.872 141.613 335.606 147.16 335.606 152.92C335.606 158.68 335.792 163.453 336.166 167.24C337.606 167.4 339.046 167.48 340.486 167.48C347.526 167.48 353.712 166.307 359.046 163.96C359.686 165.4 360.006 167.027 360.006 168.84C360.006 170.653 359.366 172.227 358.086 173.56C356.859 174.84 355.339 175.48 353.526 175.48C349.739 175.48 341.446 175.16 328.646 174.52C327.632 174.467 326.752 174.173 326.006 173.64C325.259 173.053 324.886 172.333 324.886 171.48C324.886 168.653 325.099 163.88 325.526 157.16C326.006 150.44 326.246 144.253 326.246 138.6C326.246 132.893 325.686 126.413 324.566 119.16Z"
  />
  <path
    id="dots"
    d="M56.5 209H291.5M408 286.5V417.289C408 417.682 407.682 418 407.289 418V418C407.104 418 406.926 417.928 406.793 417.798L379.65 391.351C372.18 384.073 362.164 380 351.735 380H54.5C32.4086 380 14.5 362.091 14.5 340V286M363.5 209H368C390.091 209 408 191.091 408 169V126.5C408 104.409 390.091 86.5 368 86.5H54.5C32.4086 86.5 14.5 104.409 14.5 126.5V186"
    stroke-width="28"
    stroke-linecap="round"
  />
  <circle cx="161" cy="25" r="25" />
  <circle cx="261" cy="25" r="25" />
</svg>

